<svg viewBox="10 10 100 100" xmlns="http://www.w3.org/2000/svg" role="img" aria-label="World Cup Katowice Internationals emblem">
  <g stroke="#ffffff" stroke-width="3.4" stroke-linejoin="round">
    <!-- center -->
    <polygon points="60,45 73,52.5 73,67.5 60,75 47,67.5 47,52.5" fill="#9E6FA9"/>
    <!-- top -->
    <polygon points="60,19 73,26.5 73,41.5 60,49 47,41.5 47,26.5" fill="#34C3E8"/>
    <!-- upper-right -->
    <polygon points="82.5,32 95.5,39.5 95.5,54.5 82.5,62 69.5,54.5 69.5,39.5" fill="#9E6FA9"/>
    <!-- lower-right -->
    <polygon points="82.5,58 95.5,65.5 95.5,80.5 82.5,88 69.5,80.5 69.5,65.5" fill="#34C3E8"/>
    <!-- bottom -->
    <polygon points="60,71 73,78.5 73,93.5 60,101 47,93.5 47,78.5" fill="#9E6FA9"/>
    <!-- lower-left -->
    <polygon points="37.5,58 50.5,65.5 50.5,80.5 37.5,88 24.5,80.5 24.5,65.5" fill="#34C3E8"/>
    <!-- upper-left -->
    <polygon points="37.5,32 50.5,39.5 50.5,54.5 37.5,62 24.5,54.5 24.5,39.5" fill="#9E6FA9"/>
  </g>
</svg>
